<?xml version="1.0" encoding="iso-8859-1"?>
<!-- Generator: Adobe Illustrator 19.0.0, SVG Export Plug-In . SVG Version: 6.00 Build 0)  -->
<svg version="1.1" id="Layer_1" xmlns="http://www.w3.org/2000/svg" xmlns:xlink="http://www.w3.org/1999/xlink" x="0px" y="0px"
	 viewBox="0 0 512 512" style="enable-background:new 0 0 512 512;" xml:space="preserve">
<g>
	<path style="fill:#2D527C;" d="M432.464,512h-37.766c-8.021,0-14.523-6.502-14.523-14.523s6.502-14.523,14.523-14.523h37.766
		c27.839,0,50.49-22.65,50.49-50.49V79.536c0-27.839-22.65-50.49-50.49-50.49H214.367c-8.021,0-14.523-6.502-14.523-14.523
		S206.346,0,214.367,0h218.097C476.321,0,512,35.679,512,79.536v352.928C512,476.321,476.321,512,432.464,512z"/>
	<path style="fill:#2D527C;" d="M289.693,512H79.536C35.679,512,0,476.321,0,432.464V79.536C0,35.679,35.679,0,79.536,0h32.684
		c8.021,0,14.523,6.502,14.523,14.523s-6.502,14.523-14.523,14.523H79.536c-27.839,0-50.49,22.65-50.49,50.49v352.928
		c0,27.839,22.65,50.49,50.49,50.49h210.157c8.021,0,14.523,6.502,14.523,14.523S297.714,512,289.693,512z"/>
</g>
<path style="fill:#CEE8FA;" d="M397.094,120.693l-296.09,115.385c-9.593,3.738-9.009,17.5,0.864,20.412l67.633,19.969l21.022,78.715
	c2.932,9.308,14.725,12.127,21.552,5.157l41.623-39.722l88.273,68.661c9.341,6.856,22.643,1.76,25.015-9.578l50.552-241.69
	C420.013,126.162,408.366,116.3,397.094,120.693L397.094,120.693z"/>
<g>
	<path style="fill:#2D527C;" d="M351.348,406.895h-0.001c-6.483,0-12.698-2.046-17.969-5.915c-0.109-0.08-0.216-0.161-0.322-0.244
		l-78.389-60.974l-32.42,30.94c-5.185,5.188-12.047,8.04-19.356,8.04c-12.064,0-22.601-7.716-26.219-19.202
		c-0.064-0.205-0.125-0.41-0.18-0.617l-18.918-70.841l-59.818-17.662c-10.545-3.112-17.663-12.223-18.128-23.209
		c-0.466-10.988,5.856-20.669,16.105-24.663l296.09-115.385c3.502-1.365,7.151-2.056,10.849-2.056c8.965,0,17.381,4.03,23.09,11.056
		c5.651,6.955,7.835,16,5.991,24.814l-50.554,241.69C378.264,396.705,365.71,406.895,351.348,406.895z M350.652,377.626
		c0.235,0.155,0.449,0.222,0.696,0.222c0.121,0,1.191-0.03,1.422-1.128l50.552-241.69c0.057-0.272,0.036-0.381-0.103-0.552
		c-0.151-0.186-0.388-0.327-0.548-0.327c-0.073,0-0.18,0.026-0.302,0.074L116.439,245.65l57.173,16.882
		c4.854,1.433,8.612,5.292,9.919,10.182l20.171,75.532l39.968-38.142c5.205-4.968,13.264-5.375,18.943-0.957L350.652,377.626z"/>
	<path style="fill:#2D527C;" d="M219.677,360.209c0.456,1.476,17.095-19.324,17.272-20.862l-7.463-36.536
		c-0.983-4.813,0.761-9.776,4.538-12.915l136.798-113.674c3.292-2.913-0.532-8.05-4.265-5.737L205.69,268.601
		c-3.814,2.327-5.782,6.775-4.939,11.161L219.677,360.209z"/>
</g>
<g>
</g>
<g>
</g>
<g>
</g>
<g>
</g>
<g>
</g>
<g>
</g>
<g>
</g>
<g>
</g>
<g>
</g>
<g>
</g>
<g>
</g>
<g>
</g>
<g>
</g>
<g>
</g>
<g>
</g>
</svg>
